<svg xmlns="http://www.w3.org/2000/svg" viewBox="0 0 240 240" ><path d="M239.998 120.02a119.945 119.945 0 01-45.612 94.146c-.6.473-1.207.946-1.814 1.406-.326.26-.666.494-.993.734a113.406 113.406 0 01-5.58 3.94c-.58.386-1.14.753-1.72 1.1-2.093 1.333-4.2 2.58-6.353 3.766-.867.473-1.727.927-2.587 1.38l-.52.26c-1.073.54-2.133 1.1-3.226 1.613-.02.02-.067.02-.087.047a117.678 117.678 0 01-15.06 5.96c-.02 0-.04.027-.06.027a119.74 119.74 0 01-25.073 5.06q-4.23.42-8.533.513l-1.347.02c-.473 0-.953.007-1.426.007-.727 0-1.46-.007-2.187-.02-.113-.007-.227-.007-.34-.007q-.92-.02-1.84-.06a25.765 25.765 0 01-.727-.027c-.486-.013-.966-.04-1.446-.066a32.112 32.112 0 01-.8-.047c-.407-.02-.807-.047-1.207-.08a119.182 119.182 0 01-22.406-3.747 115.828 115.828 0 01-15.12-5.1.813.813 0 00-.113-.046c-.494-.214-1.034-.427-1.527-.647a112.81 112.81 0 01-7.127-3.4l-1.013-.52a122.104 122.104 0 01-7.307-4.18c-.04-.02-.08-.04-.126-.06a119.514 119.514 0 01-10.64-7.473 84.99 84.99 0 01-5.06-4.207 62.204 62.204 0 01-2.413-2.146 1.03 1.03 0 01-.127-.114 115.532 115.532 0 01-8.94-9.22c-.086-.086-.153-.173-.24-.253-1.14-1.32-2.26-2.673-3.34-4.033a119.993 119.993 0 11214.037-74.526z" fill="#fff"></path><path d="M233.32 80.563A119.993 119.993 0 1025.963 194.547c1.073 1.36 2.2 2.714 3.34 4.027.087.087.147.173.233.26a115.524 115.524 0 008.94 9.22c.82.753 1.68 1.526 2.54 2.26a84.595 84.595 0 005.067 4.2 117.275 117.275 0 0010.64 7.48l.126.06a124.047 124.047 0 007.3 4.18l1.014.52a112.95 112.95 0 007.133 3.4c.493.213 1.033.433 1.526.646.04.02.067.02.107.04a116.185 116.185 0 0015.12 5.107A120.017 120.017 0 00120.002 240c3.813 0 7.58-.173 11.306-.54a119.572 119.572 0 0025.073-5.06c.027 0 .047-.027.067-.027a117.03 117.03 0 0015.053-5.966c.027-.02.067-.02.087-.04 1.1-.52 2.153-1.08 3.233-1.613l.52-.26c.86-.454 1.72-.907 2.58-1.38a113.556 113.556 0 006.353-3.767 37.454 37.454 0 001.727-1.1 121.69 121.69 0 005.58-3.94c.32-.24.666-.48.986-.733A119.941 119.941 0 00233.32 80.563zm-39.233 125.33l-.553-5.866a18.716 18.716 0 00-13.42-11.906l-.02.006c-5.446-1.073-32.72-1.02-32.546-8.34.04-1.7.093-3.28.147-4.706a8.57 8.57 0 00-7.747-8.873c-8.82-.847-22.586-2.14-31.66-2.993a8.532 8.532 0 00-9.16 6.64c-1.04 4.866-4.6 10.646-15.2 12.573-3.086.56-6.186.953-9.186 1.26-5.68.593-11.08.886-15.926 1.546-8.587 1.18-15.38 3.514-18.573 10.647a7.18 7.18 0 00-.327.886 9.805 9.805 0 00-.36 1.054l-.013.026c-.14.567-.267 1.134-.387 1.707a110.91 110.91 0 01-4.88-5.287 69.06 69.06 0 01-2.626-3.146 7.589 7.589 0 01-.54-.667 113.423 113.423 0 11162.977 15.44z"></path><path d="M161.968 74.41a52.34 52.34 0 00-37.113-15.367 53.022 53.022 0 00-52.213 43.812c-1.806 10.347-3.853 20.66-6.56 30.807l-.273 1.033c-2.893 10.86 4.233 21.906 15.053 23.566.127-.413.267-.82.42-1.226a25.887 25.887 0 018.067-11.18 79.513 79.513 0 00-2.407 11.18c-.04.346-.073.693-.106 1.033q2.54-.3 5.193-.553c.253-1.167.446-2.354.733-3.514.56-2.226 1.6-4.52 3.6-5.646q.17 4.38.333 8.76a317.872 317.872 0 0161.52 1.353 19.12 19.12 0 0019.12-19.12v-27.826a52.34 52.34 0 00-15.367-37.113zm-35.566 78.671a34.023 34.023 0 01-30.54-49.026v9.934h46.373a80.47 80.47 0 00-2.407-11.18 25.955 25.955 0 018.067 11.18h8.46v-11.074a34.033 34.033 0 01-29.953 50.166z"></path></svg>